<svg width="558" height="34" viewBox="0 0 558 34" fill="none" xmlns="http://www.w3.org/2000/svg">
<g filter="url(#filter0_b_1799_47)">
<rect y="4" width="558" height="4" rx="2" fill="white" fill-opacity="0.6"/>
<g filter="url(#filter1_b_1799_47)">
<rect width="406" height="4" transform="translate(0 4)" fill="#24272B" fill-opacity="0.25"/>
</g>
<g filter="url(#filter2_b_1799_47)">
<rect x="408" width="3" height="12" rx="1.5" fill="#24272B" fill-opacity="0.25"/>
</g>
</g>
<path d="M4.8 28.1555C3.50933 28.1555 2.528 27.6595 1.856 26.6675C1.184 25.6755 0.848 24.2408 0.848 22.3635C0.848 21.1048 0.997333 20.0488 1.296 19.1955C1.59467 18.3315 2.03733 17.6808 2.624 17.2435C3.22133 16.8061 3.94667 16.5875 4.8 16.5875C6.10133 16.5875 7.08267 17.0781 7.744 18.0595C8.416 19.0301 8.752 20.4595 8.752 22.3475C8.752 23.6061 8.60267 24.6675 8.304 25.5315C8.00533 26.3955 7.56267 27.0515 6.976 27.4995C6.38933 27.9368 5.664 28.1555 4.8 28.1555ZM4.8 27.0195C5.696 27.0195 6.35733 26.6408 6.784 25.8835C7.22133 25.1155 7.44 23.9368 7.44 22.3475C7.44 20.7475 7.22133 19.5795 6.784 18.8435C6.35733 18.0968 5.696 17.7235 4.8 17.7235C3.91467 17.7235 3.25333 18.0968 2.816 18.8435C2.37867 19.5901 2.16 20.7581 2.16 22.3475C2.16 23.9368 2.37867 25.1155 2.816 25.8835C3.25333 26.6408 3.91467 27.0195 4.8 27.0195ZM11.6578 28.0115C11.4231 28.0115 11.2471 27.9581 11.1298 27.8515C11.0231 27.7341 10.9698 27.5795 10.9698 27.3875C10.9698 27.2701 10.9964 27.1581 11.0498 27.0515C11.1138 26.9341 11.1991 26.8168 11.3058 26.6995L14.8898 22.8595C15.4338 22.2728 15.8231 21.7341 16.0578 21.2435C16.3031 20.7421 16.4258 20.2355 16.4258 19.7235C16.4258 19.0835 16.2284 18.5981 15.8338 18.2675C15.4498 17.9261 14.8844 17.7555 14.1378 17.7555C13.6578 17.7555 13.2044 17.8301 12.7778 17.9795C12.3511 18.1288 11.9404 18.3581 11.5458 18.6675C11.4071 18.7741 11.2791 18.8221 11.1618 18.8115C11.0551 18.8008 10.9591 18.7581 10.8738 18.6835C10.7884 18.6088 10.7298 18.5128 10.6978 18.3955C10.6658 18.2781 10.6658 18.1608 10.6978 18.0435C10.7404 17.9261 10.8258 17.8195 10.9538 17.7235C11.3698 17.3821 11.8711 17.1101 12.4578 16.9075C13.0444 16.6941 13.6418 16.5875 14.2498 16.5875C15.0071 16.5875 15.6471 16.7048 16.1698 16.9395C16.6924 17.1741 17.0871 17.5208 17.3538 17.9795C17.6204 18.4275 17.7538 18.9768 17.7538 19.6275C17.7538 20.0755 17.6791 20.5181 17.5298 20.9555C17.3911 21.3821 17.1724 21.8195 16.8738 22.2675C16.5858 22.7155 16.2071 23.1795 15.7378 23.6595L12.3298 27.2595V26.8915H17.7218C17.9244 26.8915 18.0738 26.9395 18.1698 27.0355C18.2764 27.1208 18.3298 27.2541 18.3298 27.4355C18.3298 27.6275 18.2764 27.7715 18.1698 27.8675C18.0738 27.9635 17.9244 28.0115 17.7218 28.0115H11.6578ZM21.0275 28.0755C20.7608 28.0755 20.5475 27.9955 20.3875 27.8355C20.2275 27.6648 20.1475 27.4515 20.1475 27.1955C20.1475 26.9395 20.2275 26.7315 20.3875 26.5715C20.5475 26.4008 20.7608 26.3155 21.0275 26.3155C21.2942 26.3155 21.5022 26.4008 21.6515 26.5715C21.8115 26.7315 21.8915 26.9395 21.8915 27.1955C21.8915 27.4515 21.8115 27.6648 21.6515 27.8355C21.5022 27.9955 21.2942 28.0755 21.0275 28.0755ZM24.8921 28.0115C24.6575 28.0115 24.4815 27.9581 24.3641 27.8515C24.2575 27.7341 24.2041 27.5795 24.2041 27.3875C24.2041 27.2701 24.2308 27.1581 24.2841 27.0515C24.3481 26.9341 24.4335 26.8168 24.5401 26.6995L28.1241 22.8595C28.6681 22.2728 29.0575 21.7341 29.2921 21.2435C29.5375 20.7421 29.6601 20.2355 29.6601 19.7235C29.6601 19.0835 29.4628 18.5981 29.0681 18.2675C28.6841 17.9261 28.1188 17.7555 27.3721 17.7555C26.8921 17.7555 26.4388 17.8301 26.0121 17.9795C25.5855 18.1288 25.1748 18.3581 24.7801 18.6675C24.6415 18.7741 24.5135 18.8221 24.3961 18.8115C24.2895 18.8008 24.1935 18.7581 24.1081 18.6835C24.0228 18.6088 23.9641 18.5128 23.9321 18.3955C23.9001 18.2781 23.9001 18.1608 23.9321 18.0435C23.9748 17.9261 24.0601 17.8195 24.1881 17.7235C24.6041 17.3821 25.1055 17.1101 25.6921 16.9075C26.2788 16.6941 26.8761 16.5875 27.4841 16.5875C28.2415 16.5875 28.8815 16.7048 29.4041 16.9395C29.9268 17.1741 30.3215 17.5208 30.5881 17.9795C30.8548 18.4275 30.9881 18.9768 30.9881 19.6275C30.9881 20.0755 30.9135 20.5181 30.7641 20.9555C30.6255 21.3821 30.4068 21.8195 30.1081 22.2675C29.8201 22.7155 29.4415 23.1795 28.9721 23.6595L25.5641 27.2595V26.8915H30.9561C31.1588 26.8915 31.3081 26.9395 31.4041 27.0355C31.5108 27.1208 31.5641 27.2541 31.5641 27.4355C31.5641 27.6275 31.5108 27.7715 31.4041 27.8675C31.3081 27.9635 31.1588 28.0115 30.9561 28.0115H24.8921ZM37.2219 28.1555C35.9312 28.1555 34.9499 27.6595 34.2779 26.6675C33.6059 25.6755 33.2699 24.2408 33.2699 22.3635C33.2699 21.1048 33.4192 20.0488 33.7179 19.1955C34.0165 18.3315 34.4592 17.6808 35.0459 17.2435C35.6432 16.8061 36.3685 16.5875 37.2219 16.5875C38.5232 16.5875 39.5045 17.0781 40.1659 18.0595C40.8379 19.0301 41.1739 20.4595 41.1739 22.3475C41.1739 23.6061 41.0245 24.6675 40.7259 25.5315C40.4272 26.3955 39.9845 27.0515 39.3979 27.4995C38.8112 27.9368 38.0859 28.1555 37.2219 28.1555ZM37.2219 27.0195C38.1179 27.0195 38.7792 26.6408 39.2059 25.8835C39.6432 25.1155 39.8619 23.9368 39.8619 22.3475C39.8619 20.7475 39.6432 19.5795 39.2059 18.8435C38.7792 18.0968 38.1179 17.7235 37.2219 17.7235C36.3365 17.7235 35.6752 18.0968 35.2379 18.8435C34.8005 19.5901 34.5819 20.7581 34.5819 22.3475C34.5819 23.9368 34.8005 25.1155 35.2379 25.8835C35.6752 26.6408 36.3365 27.0195 37.2219 27.0195Z" fill="#24272B"/>
<path d="M519.8 28.1555C518.509 28.1555 517.528 27.6595 516.856 26.6675C516.184 25.6755 515.848 24.2408 515.848 22.3635C515.848 21.1048 515.997 20.0488 516.296 19.1955C516.595 18.3315 517.037 17.6808 517.624 17.2435C518.221 16.8061 518.947 16.5875 519.8 16.5875C521.101 16.5875 522.083 17.0781 522.744 18.0595C523.416 19.0301 523.752 20.4595 523.752 22.3475C523.752 23.6061 523.603 24.6675 523.304 25.5315C523.005 26.3955 522.563 27.0515 521.976 27.4995C521.389 27.9368 520.664 28.1555 519.8 28.1555ZM519.8 27.0195C520.696 27.0195 521.357 26.6408 521.784 25.8835C522.221 25.1155 522.44 23.9368 522.44 22.3475C522.44 20.7475 522.221 19.5795 521.784 18.8435C521.357 18.0968 520.696 17.7235 519.8 17.7235C518.915 17.7235 518.253 18.0968 517.816 18.8435C517.379 19.5901 517.16 20.7581 517.16 22.3475C517.16 23.9368 517.379 25.1155 517.816 25.8835C518.253 26.6408 518.915 27.0195 519.8 27.0195ZM529.266 28.1555C528.647 28.1555 528.023 28.0648 527.394 27.8835C526.775 27.7021 526.236 27.4355 525.778 27.0835C525.639 26.9875 525.548 26.8808 525.506 26.7635C525.463 26.6355 525.452 26.5181 525.474 26.4115C525.506 26.2941 525.564 26.1981 525.65 26.1235C525.735 26.0381 525.836 25.9901 525.954 25.9795C526.082 25.9688 526.22 26.0115 526.37 26.1075C526.839 26.4168 527.308 26.6408 527.778 26.7795C528.247 26.9181 528.732 26.9875 529.234 26.9875C529.778 26.9875 530.236 26.9075 530.61 26.7475C530.983 26.5875 531.266 26.3528 531.458 26.0435C531.65 25.7235 531.746 25.3341 531.746 24.8755C531.746 24.2141 531.527 23.7128 531.09 23.3715C530.652 23.0301 530.018 22.8595 529.186 22.8595H528.05C527.847 22.8595 527.692 22.8115 527.586 22.7155C527.479 22.6088 527.426 22.4648 527.426 22.2835C527.426 22.1128 527.479 21.9795 527.586 21.8835C527.692 21.7768 527.847 21.7235 528.05 21.7235H529.074C529.564 21.7235 529.98 21.6381 530.322 21.4675C530.674 21.2968 530.946 21.0568 531.138 20.7475C531.33 20.4275 531.426 20.0435 531.426 19.5955C531.426 18.9981 531.234 18.5448 530.85 18.2355C530.466 17.9155 529.911 17.7555 529.186 17.7555C528.706 17.7555 528.252 17.8248 527.826 17.9635C527.399 18.1021 526.978 18.3368 526.562 18.6675C526.434 18.7635 526.306 18.8115 526.178 18.8115C526.06 18.8008 525.959 18.7635 525.874 18.6995C525.799 18.6248 525.74 18.5288 525.698 18.4115C525.666 18.2941 525.671 18.1768 525.714 18.0595C525.756 17.9315 525.847 17.8141 525.986 17.7075C526.412 17.3448 526.914 17.0675 527.49 16.8755C528.066 16.6835 528.658 16.5875 529.266 16.5875C529.991 16.5875 530.61 16.7048 531.122 16.9395C531.644 17.1635 532.044 17.4941 532.322 17.9315C532.599 18.3581 532.738 18.8755 532.738 19.4835C532.738 19.9421 532.647 20.3635 532.466 20.7475C532.295 21.1208 532.05 21.4408 531.73 21.7075C531.42 21.9741 531.042 22.1661 530.594 22.2835V22.1075C531.372 22.2355 531.975 22.5555 532.402 23.0675C532.839 23.5688 533.058 24.2035 533.058 24.9715C533.058 25.6221 532.903 26.1875 532.594 26.6675C532.295 27.1368 531.863 27.5048 531.298 27.7715C530.732 28.0275 530.055 28.1555 529.266 28.1555ZM536.028 28.0755C535.761 28.0755 535.548 27.9955 535.388 27.8355C535.228 27.6648 535.148 27.4515 535.148 27.1955C535.148 26.9395 535.228 26.7315 535.388 26.5715C535.548 26.4008 535.761 26.3155 536.028 26.3155C536.294 26.3155 536.502 26.4008 536.652 26.5715C536.812 26.7315 536.892 26.9395 536.892 27.1955C536.892 27.4515 536.812 27.6648 536.652 27.8355C536.502 27.9955 536.294 28.0755 536.028 28.0755ZM540.308 28.0115C540.116 28.0115 539.967 27.9635 539.86 27.8675C539.753 27.7608 539.7 27.6168 539.7 27.4355C539.7 27.2541 539.753 27.1208 539.86 27.0355C539.967 26.9395 540.116 26.8915 540.308 26.8915H542.388V17.8195H543.076L540.756 19.3555C540.617 19.4301 540.484 19.4621 540.356 19.4515C540.239 19.4408 540.137 19.3981 540.052 19.3235C539.977 19.2381 539.924 19.1421 539.892 19.0355C539.86 18.9181 539.865 18.8008 539.908 18.6835C539.951 18.5555 540.041 18.4488 540.18 18.3635L542.388 16.9075C542.527 16.8221 542.66 16.7528 542.788 16.6995C542.916 16.6461 543.044 16.6195 543.172 16.6195C543.321 16.6195 543.444 16.6675 543.54 16.7635C543.647 16.8488 543.7 16.9875 543.7 17.1795V26.8915H545.62C545.812 26.8915 545.961 26.9395 546.068 27.0355C546.175 27.1208 546.228 27.2541 546.228 27.4355C546.228 27.6275 546.175 27.7715 546.068 27.8675C545.961 27.9635 545.812 28.0115 545.62 28.0115H540.308ZM552.462 28.1555C551.854 28.1555 551.246 28.0648 550.638 27.8835C550.041 27.7021 549.497 27.4195 549.006 27.0355C548.878 26.9501 548.793 26.8488 548.75 26.7315C548.707 26.6141 548.702 26.4968 548.734 26.3795C548.766 26.2621 548.825 26.1661 548.91 26.0915C548.995 26.0061 549.097 25.9581 549.214 25.9475C549.342 25.9368 549.475 25.9795 549.614 26.0755C550.051 26.3848 550.505 26.6141 550.974 26.7635C551.443 26.9128 551.934 26.9875 552.446 26.9875C552.969 26.9875 553.417 26.8915 553.79 26.6995C554.174 26.4968 554.462 26.2195 554.654 25.8675C554.857 25.5048 554.958 25.0835 554.958 24.6035C554.958 23.8675 554.745 23.2648 554.318 22.7955C553.891 22.3261 553.305 22.0915 552.558 22.0915C552.099 22.0915 551.678 22.1768 551.294 22.3475C550.91 22.5181 550.558 22.7901 550.238 23.1635C550.163 23.2488 550.073 23.3235 549.966 23.3875C549.87 23.4408 549.758 23.4675 549.63 23.4675C549.449 23.4675 549.305 23.4195 549.198 23.3235C549.102 23.2168 549.054 23.0781 549.054 22.9075V17.3395C549.054 17.1368 549.107 16.9875 549.214 16.8915C549.321 16.7848 549.47 16.7315 549.662 16.7315H555.102C555.305 16.7315 555.454 16.7795 555.55 16.8755C555.657 16.9715 555.71 17.1101 555.71 17.2915C555.71 17.4728 555.657 17.6115 555.55 17.7075C555.454 17.8035 555.305 17.8515 555.102 17.8515H550.35V22.3475H549.998C550.275 21.8995 550.659 21.5581 551.15 21.3235C551.641 21.0781 552.19 20.9555 552.798 20.9555C553.513 20.9555 554.126 21.1048 554.638 21.4035C555.161 21.7021 555.561 22.1235 555.838 22.6675C556.126 23.2008 556.27 23.8248 556.27 24.5395C556.27 25.2435 556.115 25.8675 555.806 26.4115C555.497 26.9555 555.059 27.3821 554.494 27.6915C553.929 28.0008 553.251 28.1555 552.462 28.1555Z" fill="#24272B"/>
<defs>
<filter id="filter0_b_1799_47" x="-29" y="-29" width="616" height="70" filterUnits="userSpaceOnUse" color-interpolation-filters="sRGB">
<feFlood flood-opacity="0" result="BackgroundImageFix"/>
<feGaussianBlur in="BackgroundImageFix" stdDeviation="14.5"/>
<feComposite in2="SourceAlpha" operator="in" result="effect1_backgroundBlur_1799_47"/>
<feBlend mode="normal" in="SourceGraphic" in2="effect1_backgroundBlur_1799_47" result="shape"/>
</filter>
<filter id="filter1_b_1799_47" x="-20" y="-16" width="446" height="44" filterUnits="userSpaceOnUse" color-interpolation-filters="sRGB">
<feFlood flood-opacity="0" result="BackgroundImageFix"/>
<feGaussianBlur in="BackgroundImageFix" stdDeviation="10"/>
<feComposite in2="SourceAlpha" operator="in" result="effect1_backgroundBlur_1799_47"/>
<feBlend mode="normal" in="SourceGraphic" in2="effect1_backgroundBlur_1799_47" result="shape"/>
</filter>
<filter id="filter2_b_1799_47" x="388" y="-20" width="43" height="52" filterUnits="userSpaceOnUse" color-interpolation-filters="sRGB">
<feFlood flood-opacity="0" result="BackgroundImageFix"/>
<feGaussianBlur in="BackgroundImageFix" stdDeviation="10"/>
<feComposite in2="SourceAlpha" operator="in" result="effect1_backgroundBlur_1799_47"/>
<feBlend mode="normal" in="SourceGraphic" in2="effect1_backgroundBlur_1799_47" result="shape"/>
</filter>
</defs>
</svg>
