<svg width="65" height="65" viewBox="0 0 65 65" fill="none" xmlns="http://www.w3.org/2000/svg">
<path d="M17.4015 13.3456C17.4015 11.8729 18.5954 10.679 20.0682 10.679H26.7348C28.2076 10.679 29.4015 11.8729 29.4015 13.3456V50.679C29.4015 52.1517 28.2076 53.3456 26.7348 53.3456H20.0682C18.5954 53.3456 17.4015 52.1517 17.4015 50.679V13.3456Z" fill="#BFC1C4"/>
<path d="M34.7348 13.3456C34.7348 11.8729 35.9287 10.679 37.4015 10.679H44.0682C45.5409 10.679 46.7348 11.8729 46.7348 13.3456V50.679C46.7348 52.1517 45.5409 53.3456 44.0682 53.3456H37.4015C35.9287 53.3456 34.7348 52.1517 34.7348 50.679V13.3456Z" fill="#BFC1C4"/>
</svg>
