<svg width="68" height="34" viewBox="0 0 68 34" fill="none" xmlns="http://www.w3.org/2000/svg">
<path d="M11.3105 5.82962C11.3158 6.14798 11.2696 6.4651 11.1736 6.76868C11.2746 7.07479 11.3209 7.39628 11.3105 7.71844C11.316 8.05435 11.2699 8.38912 11.1736 8.71098C10.7144 8.74378 10.2545 8.78443 9.79387 8.83291C9.89596 9.15647 9.94296 9.49488 9.93291 9.83401C9.93768 10.1904 9.89085 10.5456 9.79387 10.8886C9.33396 10.9399 8.8762 11.002 8.41629 11.0725C8.517 11.4125 8.56321 11.7663 8.55319 12.1207C8.55747 12.4959 8.51142 12.87 8.41629 13.233C5.56037 13.6802 2.77747 14.509 0.142269 15.6973C0.0394728 15.3504 -0.00746124 14.9894 0.00322809 14.6277C-0.00263289 14.229 0.0441172 13.8313 0.142269 13.4448C0.0400379 13.0978 -0.00688438 12.7369 0.00322809 12.3753C-0.00264426 11.9773 0.0441075 11.5802 0.142269 11.1945C0.0405231 10.8474 -0.00638917 10.4865 0.00322809 10.1249C-0.00310456 9.72972 0.0436603 9.33546 0.142269 8.9527C0.0416669 8.60536 -0.00522214 8.24467 0.00322809 7.88315C-0.00356614 7.49075 0.0432123 7.09925 0.142269 6.71949C0.0415281 6.36705 -0.00534864 6.00141 0.00322809 5.63496C-0.00405118 5.24606 0.0427432 4.85802 0.142269 4.48199C0.0422572 4.12649 -0.00459725 3.75814 0.00322809 3.38891C-0.00483403 3.00419 0.0419838 2.62029 0.142269 2.24878C0.0427672 1.88806 -0.00406411 1.51485 0.00322809 1.14073C-0.0057056 0.761593 0.0411422 0.383206 0.142269 0.0177002H8.41629C8.51486 0.268836 8.56144 0.537365 8.55319 0.807027C8.55905 1.09045 8.51264 1.37253 8.41629 1.63913C8.8762 1.62202 9.33396 1.60491 9.79387 1.59207C9.89488 1.85079 9.94218 2.12735 9.93291 2.40493C9.9385 2.69619 9.8914 2.98607 9.79387 3.26057C10.2538 3.2349 10.7137 3.21565 11.1736 3.19854C11.2751 3.47195 11.3217 3.76273 11.3105 4.05417C11.3159 4.35573 11.2696 4.65597 11.1736 4.9419C11.273 5.22697 11.3194 5.52784 11.3105 5.82962ZM8.27725 8.01578C8.26914 7.67886 8.3161 7.34288 8.41629 7.0211C8.31776 6.71805 8.27076 6.40063 8.27725 6.08204C8.26908 5.76054 8.31611 5.44002 8.41629 5.13442C8.31802 4.84679 8.27096 4.54416 8.27725 4.24027C8.26884 3.93485 8.31595 3.63044 8.41629 3.34185C7.9571 3.37608 7.49719 3.41458 7.03657 3.45737C6.93841 3.17562 6.89132 2.87862 6.89753 2.58034C6.88893 2.28189 6.93608 1.98446 7.03657 1.70331C5.65757 1.77318 4.27857 1.8673 2.89956 1.98567C3.00002 2.30073 3.04632 2.63055 3.03647 2.9611C3.04172 3.30682 2.99558 3.65141 2.89956 3.98358C3.00114 4.30354 3.04744 4.63847 3.03647 4.97398C3.04134 5.32883 2.99523 5.68254 2.89956 6.02428C3.00157 6.34782 3.04786 6.68633 3.03647 7.02538C3.04009 7.38648 2.99402 7.74637 2.89956 8.09492C3.0018 8.42355 3.04807 8.76703 3.03647 9.11099C3.04098 9.48483 2.99493 9.85755 2.89956 10.219C3.00212 10.5535 3.04838 10.9026 3.03647 11.2522C3.0409 11.6338 2.99487 12.0143 2.89956 12.3838C4.25394 11.9358 5.63581 11.5757 7.03657 11.3057C6.93708 10.9728 6.89017 10.6263 6.89753 10.2789C6.88868 9.9174 6.93557 9.55665 7.03657 9.20939C7.49648 9.12597 7.95638 9.05324 8.41629 8.99548C8.31771 8.67848 8.27076 8.34769 8.27725 8.01578Z" fill="#24272B"/>
<path d="M22.8958 11.3421C22.9942 11.6993 23.0403 12.0689 23.0327 12.4394C23.0386 12.8007 22.9925 13.1609 22.8958 13.509C20.6128 13.1391 18.31 12.9041 15.9994 12.8052C15.9025 12.4499 15.8564 12.0826 15.8625 11.7143C15.8522 11.3577 15.8984 11.0018 15.9994 10.6597C16.691 10.6854 17.3805 10.7246 18.0679 10.7773C17.9715 10.4365 17.9253 10.0834 17.931 9.72919C17.9207 9.3902 17.967 9.05187 18.0679 8.72809C17.9715 8.40553 17.9253 8.07003 17.931 7.73341C17.9207 7.41126 17.9671 7.08979 18.0679 6.78365C17.9716 6.47866 17.9254 6.16009 17.931 5.84031C17.9209 5.53426 17.9673 5.22898 18.0679 4.93975C17.9721 4.65379 17.9258 4.35357 17.931 4.05203C17.9202 3.76061 17.9667 3.4699 18.0679 3.19639C17.972 2.92818 17.9256 2.64479 17.931 2.36C17.9212 2.08606 17.9678 1.81304 18.0679 1.55784C17.3791 1.54358 16.6896 1.53289 15.9994 1.52576C15.9036 1.28205 15.8571 1.02177 15.8625 0.75996C15.8529 0.506864 15.8997 0.254807 15.9994 0.0219727H22.8958C22.9948 0.288639 23.0413 0.571914 23.0327 0.85622C23.039 1.14735 22.9926 1.43722 22.8958 1.71186C22.2049 1.68405 21.5161 1.66052 20.8273 1.63699C20.9272 1.91084 20.9737 2.20129 20.9642 2.49263C20.9696 2.7837 20.9233 3.07341 20.8273 3.34827C20.926 3.63574 20.9724 3.93858 20.9642 4.24241C20.9699 4.54748 20.9236 4.85129 20.8273 5.14083C20.926 5.44526 20.9723 5.76424 20.9642 6.08417C20.9701 6.40256 20.9239 6.71978 20.8273 7.02323C20.9258 7.34461 20.972 7.67973 20.9642 8.01577C20.9702 8.3489 20.924 8.6809 20.8273 8.99976C21.0099 9.67717 21.0099 10.3908 20.8273 11.0683C21.5161 11.141 22.2056 11.2323 22.8958 11.3421Z" fill="#24272B"/>
<path d="M31.8586 8.65533C31.9575 9.02124 32.0036 9.39941 31.9955 9.77836C32.0033 10.1397 31.9572 10.5002 31.8586 10.8479C31.9574 11.2175 32.0035 11.5992 31.9955 11.9816C32.0029 12.3429 31.9567 12.7034 31.8586 13.0512C33.6961 13.4533 35.5357 13.8662 37.3754 14.2598C37.4736 14.6505 37.5182 15.0528 37.508 15.4555C37.5156 15.8274 37.4694 16.1984 37.3711 16.5571C34.6116 15.9475 31.8543 15.2887 29.097 14.6961C28.9991 14.3242 28.9524 13.9406 28.958 13.556C28.9467 13.1943 28.9936 12.8332 29.097 12.4865C28.9992 12.1225 28.9524 11.7467 28.958 11.3698C28.9465 11.0131 28.9934 10.6568 29.097 10.3153C28.9991 9.95861 28.9523 9.58986 28.958 9.22005C28.948 8.86868 28.9964 8.51809 29.1013 8.18259C29.0036 7.83465 28.9568 7.4744 28.9623 7.11304C28.9512 6.76754 28.9982 6.42264 29.1013 6.0927C29.0033 5.75214 28.9564 5.39889 28.9623 5.04454C28.9516 4.70327 28.9986 4.36264 29.1013 4.03703C29.0029 3.70459 28.956 3.35904 28.9623 3.0124C28.9523 2.67608 28.9993 2.34048 29.1013 2.01986C29.0028 1.69697 28.9559 1.36056 28.9623 1.02304C28.9525 0.690937 28.9995 0.359605 29.1013 0.043335H37.3754C37.4745 0.445584 37.5206 0.859101 37.5123 1.27331C37.5187 1.68321 37.4727 2.09224 37.3754 2.49046C35.5357 2.38778 33.6961 2.27655 31.8586 2.17387C31.9584 2.52646 32.0046 2.89206 31.9955 3.25839C32.0038 3.61976 31.9576 3.98031 31.8586 4.32794C31.9581 4.68571 32.0042 5.0562 31.9955 5.42744C32.0038 5.7888 31.9577 6.14936 31.8586 6.49698C33.6961 6.76651 35.5357 7.04245 37.3754 7.30556C37.4734 7.70002 37.5194 8.10561 37.5123 8.51201C37.5194 8.90149 37.4734 9.29012 37.3754 9.66712C35.5357 9.32273 33.6961 8.98475 31.8586 8.65533Z" fill="#24272B"/>
<path d="M52.6806 10.0437C52.6883 10.4882 52.6423 10.9321 52.5437 11.3657C52.6436 11.7903 52.6896 12.2258 52.6806 12.6619C52.6883 13.0881 52.6423 13.5136 52.5437 13.9283C52.6433 14.3355 52.6893 14.7541 52.6806 15.1732C52.6882 15.5811 52.6422 15.9881 52.5437 16.384C52.0845 16.3754 51.6246 16.3597 51.164 16.3369C51.2641 16.7267 51.3108 17.1282 51.303 17.5305C51.3103 17.9201 51.2635 18.3089 51.164 18.6856C48.8532 18.5573 46.5515 18.2995 44.2697 17.9134C44.1744 17.5295 44.1305 17.1346 44.1392 16.7391C44.1297 16.3515 44.1766 15.9645 44.2782 15.5904C43.8176 15.5176 43.3577 15.4413 42.8985 15.3615C42.8014 14.9669 42.7553 14.5614 42.7616 14.155C42.7515 13.7584 42.7976 13.3623 42.8985 12.9785C42.4393 12.9058 41.9794 12.8288 41.5188 12.7475C41.4217 12.3463 41.3757 11.9345 41.3819 11.5218C41.3717 11.1181 41.4178 10.7149 41.5188 10.3239C41.4216 9.91333 41.3756 9.49229 41.3819 9.0704C41.3718 8.65611 41.4179 8.24236 41.5188 7.84042C41.4211 7.41977 41.3751 6.98876 41.3819 6.55697C41.3719 6.13139 41.418 5.70635 41.5188 5.29276L42.8985 5.41255C42.8006 4.97598 42.7547 4.52938 42.7616 4.08203C42.7521 3.63528 42.7981 3.18908 42.8985 2.75365L44.2782 2.81355C44.1792 2.35759 44.1326 1.89182 44.1392 1.42528C44.1305 0.95441 44.1772 0.484158 44.2782 0.0241699H51.1725C51.273 0.516782 51.3196 1.01885 51.3116 1.52154C51.3186 2.01711 51.272 2.51198 51.1725 2.99751C51.6317 2.99751 52.0916 3.00179 52.5522 3.01035C52.6523 3.48998 52.6982 3.97933 52.6891 4.46921C52.6968 4.94913 52.6509 5.4284 52.5522 5.89813C51.6324 5.88957 50.7133 5.86818 49.7949 5.83395C49.6947 5.36733 49.648 4.89079 49.6559 4.41359C49.6461 3.93066 49.6928 3.44823 49.7949 2.97612C48.4145 2.94903 47.0355 2.90981 45.6579 2.85847C45.757 3.31729 45.8029 3.78598 45.7948 4.2553C45.8016 4.71254 45.7556 5.16904 45.6579 5.61576L44.2782 5.51523C44.3779 5.9544 44.4239 6.40405 44.4151 6.8543C44.4223 7.28612 44.3763 7.71717 44.2782 8.13776C44.3776 8.56465 44.4236 9.00224 44.4151 9.44047C44.4232 9.86173 44.3772 10.2823 44.2782 10.6918C44.3774 11.1064 44.4234 11.532 44.4151 11.9582C44.4236 12.3661 44.3775 12.7732 44.2782 13.1689C44.7381 13.2374 45.198 13.2994 45.6579 13.3614C45.7559 13.7653 45.802 14.1801 45.7948 14.5957C45.8022 14.9929 45.7561 15.3893 45.6579 15.7743C47.0355 15.969 48.4152 16.123 49.7949 16.2278C49.6952 15.8285 49.6485 15.4179 49.6559 15.0064C49.646 14.5934 49.6928 14.181 49.7949 13.7807C49.6952 13.3647 49.6485 12.9378 49.6559 12.5101C49.6457 12.078 49.6924 11.6465 49.7949 11.2266C49.1033 11.1838 48.4138 11.1318 47.7264 11.0705C47.6266 10.64 47.5799 10.1989 47.5874 9.75705C47.5773 9.31581 47.6241 8.87511 47.7264 8.44579C49.335 8.56344 50.9351 8.64258 52.5522 8.6597C52.6518 9.11398 52.6949 9.57883 52.6806 10.0437Z" fill="#24272B"/>
<path d="M66.4713 8.29384C66.4752 8.70008 66.4293 9.10526 66.3344 9.50029C66.4357 9.86136 66.4818 10.2356 66.4713 10.6105C66.475 11.0153 66.429 11.419 66.3344 11.8127C65.9879 11.9353 65.6428 12.0529 65.2991 12.1656C65.4027 12.5284 65.4489 12.9051 65.436 13.2822C65.4409 13.6864 65.3949 14.0896 65.2991 14.4822C64.7237 14.6833 64.1504 14.8651 63.575 15.032C63.6778 15.395 63.7247 15.7715 63.714 16.1486C63.7187 16.5472 63.672 16.9448 63.575 17.3315C61.772 17.8687 59.9264 18.2509 58.0583 18.4738C57.9592 18.1014 57.9131 17.7168 57.9214 17.3315C57.9132 16.9279 57.9593 16.525 58.0583 16.1336C57.485 16.1999 56.9096 16.2534 56.3363 16.2941C56.2368 15.9013 56.19 15.497 56.1972 15.0919C56.1894 14.6719 56.2361 14.2527 56.3363 13.8448C55.9919 13.8662 55.6454 13.8854 55.301 13.8983C55.2023 13.4858 55.1563 13.0624 55.1641 12.6383C55.1553 12.2008 55.2013 11.7639 55.301 11.3378C55.2022 10.9064 55.1562 10.4647 55.1641 10.0222C55.1551 9.56843 55.2011 9.11522 55.301 8.67246C55.2022 8.22228 55.1563 7.76212 55.1641 7.3013C55.1551 6.82983 55.201 6.35891 55.301 5.89806C55.6454 5.89806 55.9919 5.88094 56.3363 5.86811C56.2366 5.40285 56.19 4.92779 56.1972 4.45203C56.1888 3.9649 56.2355 3.47838 56.3363 3.00172C56.9096 2.99103 57.485 2.97819 58.0583 2.96108C57.9595 2.48342 57.9136 1.99634 57.9214 1.50863C57.9122 1.01238 57.9581 0.516641 58.0583 0.0305176H63.575C63.6759 0.463718 63.7226 0.907769 63.714 1.35248C63.7203 1.79638 63.6736 2.23944 63.575 2.6723C64.1504 2.62952 64.7237 2.58246 65.2991 2.52898C65.4007 2.92715 65.4468 3.33747 65.436 3.74827C65.4421 4.16732 65.3961 4.5855 65.2991 4.99322C65.6435 4.93546 65.9879 4.87343 66.3344 4.80926C66.4346 5.18367 66.4807 5.57048 66.4713 5.95795C66.4757 6.36421 66.4297 6.76945 66.3344 7.1644C66.4351 7.53216 66.4812 7.91269 66.4713 8.29384ZM63.4381 11.5025C63.4302 11.0819 63.4763 10.6621 63.575 10.2533C63.4753 9.86127 63.4293 9.45758 63.4381 9.05322C63.43 8.6249 63.476 8.19727 63.575 7.78046C63.4754 7.37683 63.4294 6.96185 63.4381 6.5462C63.4298 6.1108 63.4757 5.67607 63.575 5.25205C63.2299 5.30196 62.8855 5.34688 62.5418 5.38681C62.4417 4.96001 62.395 4.52242 62.4028 4.0841C62.3946 3.63164 62.4413 3.17985 62.5418 2.73861C61.391 2.81562 60.2423 2.87338 59.0936 2.9183C59.1947 3.37899 59.2414 3.84997 59.2326 4.32154C59.2392 4.79091 59.1925 5.25951 59.0936 5.71837C58.7492 5.74404 58.4048 5.76543 58.0583 5.78468C58.1595 6.23378 58.2062 6.69344 58.1973 7.15371C58.2038 7.61246 58.1571 8.07042 58.0583 8.51845C58.1597 8.95011 58.2064 9.39281 58.1973 9.83613C58.2037 10.2786 58.157 10.7203 58.0583 11.1517C58.1595 11.5659 58.2062 11.9917 58.1973 12.418C58.2036 12.8457 58.1569 13.2725 58.0583 13.6886C58.4048 13.6523 58.7492 13.6095 59.0936 13.5624C59.1951 13.9563 59.2419 14.3623 59.2326 14.7689C59.2384 15.1803 59.1917 15.5907 59.0936 15.9903C60.254 15.8218 61.405 15.5933 62.5418 15.3058C62.4411 14.9322 62.3943 14.5461 62.4028 14.1592C62.3958 13.7443 62.4426 13.3301 62.5418 12.9271C62.8869 12.8458 63.2313 12.7596 63.575 12.6683C63.4757 12.2901 63.4296 11.8999 63.4381 11.5089V11.5025Z" fill="#24272B"/>
<path d="M4.20442 30.979C4.26133 31.3886 4.28708 31.8019 4.28143 32.2154C4.2853 32.6359 4.25957 33.0562 4.20442 33.4732H0.30913C0.254195 33.1194 0.228439 32.7617 0.232123 32.4036C0.227092 32.042 0.252854 31.6806 0.30913 31.3234C0.698446 31.2827 1.08776 31.2421 1.47708 31.2057C1.37439 30.4599 1.37439 29.7034 1.47708 28.9575C1.42186 28.5952 1.3961 28.2289 1.40007 27.8623C1.39535 27.4844 1.4211 27.1067 1.47708 26.7329C1.42148 26.3741 1.39573 26.0114 1.40007 25.6484C1.3954 25.2726 1.42115 24.897 1.47708 24.5253C1.42139 24.1716 1.39563 23.8138 1.40007 23.4558C1.39554 23.0821 1.42129 22.7087 1.47708 22.3392C1.4212 21.9898 1.39544 21.6363 1.40007 21.2825C1.39556 20.9109 1.42132 20.5396 1.47708 20.1723C1.08776 20.3199 0.698446 20.4739 0.30913 20.6386C0.253053 20.2986 0.227283 19.9543 0.232123 19.6097C0.227833 19.2431 0.253588 18.8768 0.30913 18.5145C1.57543 17.9548 2.87657 17.4775 4.20442 17.0856C4.26202 17.4391 4.28779 17.797 4.28143 18.1551C4.28458 18.5309 4.25884 18.9063 4.20442 19.2781C3.81511 19.388 3.42508 19.5056 3.03434 19.6311C3.09339 19.9844 3.11988 20.3425 3.11348 20.7006C3.11712 21.0808 3.09065 21.4606 3.03434 21.8365C3.09366 22.1992 3.12015 22.5664 3.11348 22.9339C3.11715 23.3197 3.09069 23.7052 3.03434 24.0868C3.09361 24.4574 3.12009 24.8325 3.11348 25.2077C3.11734 25.5985 3.09088 25.989 3.03434 26.3757C3.09347 26.7542 3.11995 27.137 3.11348 27.5201C3.11745 27.9158 3.09099 28.3113 3.03434 28.703C3.09335 29.0901 3.11982 29.4815 3.11348 29.8731C3.11763 30.2738 3.09117 30.6743 3.03434 31.071C3.42579 31.0346 3.81511 31.0047 4.20442 30.979Z" fill="#24272B"/>
<path d="M13.1587 30.6431C13.2175 31.1078 13.2439 31.5759 13.2378 32.0442C13.242 32.5203 13.2156 32.9962 13.1587 33.4689H11.6014C11.5464 32.9989 11.5207 32.526 11.5244 32.0528C11.5189 31.5874 11.5446 31.1222 11.6014 30.6602L11.0174 30.6709C10.9624 30.2196 10.9367 29.7652 10.9404 29.3105C10.9348 28.8615 10.9606 28.4126 11.0174 27.9671L10.4335 27.9907C10.3785 27.5565 10.3527 27.1191 10.3565 26.6815C10.3509 26.2481 10.3767 25.8149 10.4335 25.3852C9.79174 25.4259 9.13503 25.4772 8.48689 25.5393C8.54396 25.9582 8.5697 26.3807 8.56389 26.8035C8.56758 27.2368 8.54185 27.6699 8.48689 28.0998C8.54384 28.533 8.56957 28.9698 8.56389 29.4067C8.5676 29.8536 8.54187 30.3002 8.48689 30.7437C8.54386 31.1913 8.56959 31.6423 8.56389 32.0934C8.56769 32.5531 8.54197 33.0125 8.48689 33.4689H6.92963C6.87276 33.0256 6.84632 32.5789 6.85048 32.1319C6.84457 31.69 6.87103 31.2481 6.92963 30.81C6.87264 30.381 6.84619 29.9485 6.85048 29.5158C6.8449 29.0866 6.87135 28.6576 6.92963 28.2324C6.87252 27.8163 6.84607 27.3967 6.85048 26.9767C6.84465 26.5568 6.87111 26.137 6.92963 25.7211C6.87255 25.3179 6.84609 24.9111 6.85048 24.5039C6.84473 24.0953 6.87119 23.6869 6.92963 23.2825C6.8725 22.8916 6.84604 22.4968 6.85048 22.1017C6.84488 21.7045 6.87135 21.3075 6.92963 20.9145C6.82407 20.1538 6.82407 19.3821 6.92963 18.6214C6.82408 17.8858 6.82408 17.1388 6.92963 16.4032C8.72651 16.0402 10.5487 15.8164 12.38 15.7336C12.4388 16.1007 12.4653 16.4722 12.4592 16.8438C12.4632 17.2254 12.4367 17.6066 12.38 17.984L13.1587 17.9562C13.2176 18.3404 13.244 18.729 13.2378 19.1177C13.2418 19.5149 13.2154 19.9118 13.1587 20.3049H12.7694C12.8282 20.7042 12.8547 21.1077 12.8485 21.5113C12.8526 21.9241 12.8262 22.3367 12.7694 22.7456C12.38 22.7584 11.9907 22.7734 11.6014 22.7927C11.6592 23.2065 11.6856 23.6241 11.6806 24.0419C11.6838 24.471 11.6574 24.8999 11.6014 25.3253L11.9907 25.3104C12.0496 25.7406 12.076 26.1746 12.0699 26.6088C12.073 27.0521 12.0466 27.4952 11.9907 27.935L12.5747 27.9222C12.6335 28.3696 12.66 28.8207 12.6538 29.272C12.6581 29.7317 12.6317 30.1912 12.5747 30.6474L13.1587 30.6431ZM11.1351 21.5969C11.1296 21.1927 11.1554 20.7886 11.2121 20.3883C11.1571 19.9986 11.1313 19.6054 11.1351 19.2118C11.1296 18.8225 11.1554 18.4334 11.2121 18.0481C10.3037 18.1152 9.39529 18.2157 8.48689 18.3498C8.54414 18.7256 8.5699 19.1055 8.56389 19.4856C8.56735 19.8799 8.54161 20.2738 8.48689 20.6643C8.544 21.0544 8.56975 21.4486 8.56389 21.8429C8.56731 22.2506 8.54158 22.6581 8.48689 23.0622C9.396 22.9531 10.303 22.8739 11.2121 22.8183C11.1572 22.415 11.1314 22.0082 11.1351 21.6012V21.5969Z" fill="#24272B"/>
<path d="M20.2476 24.2472C20.2508 24.665 20.2244 25.0824 20.1685 25.4964C19.1317 25.4223 18.0935 25.3652 17.0539 25.3253C17.1107 25.7571 17.1364 26.1925 17.131 26.628C17.1347 27.0692 17.109 27.5101 17.0539 27.9478C17.1108 28.3947 17.1365 28.845 17.131 29.2955C17.1346 29.753 17.1089 30.2103 17.0539 30.6645C17.1109 31.1264 17.1366 31.5917 17.131 32.057C17.1347 32.5302 17.109 33.0032 17.0539 33.4731H15.4967C15.4398 33.0004 15.4134 32.5246 15.4175 32.0485C15.4112 31.5788 15.4377 31.1092 15.4967 30.6431C15.4398 30.1862 15.4134 29.726 15.4175 29.2655C15.4114 28.8136 15.4379 28.3618 15.4967 27.9136C15.4399 27.4724 15.4134 27.0279 15.4175 26.5831C15.4121 26.1525 15.4385 25.7221 15.4967 25.2954C15.4399 24.87 15.4134 24.4411 15.4175 24.0119C15.4114 23.5919 15.4379 23.1721 15.4967 22.7563C15.44 22.3466 15.4135 21.9334 15.4175 21.5199C15.4114 21.1162 15.4378 20.7128 15.4967 20.3134C15.44 19.9203 15.4135 19.5234 15.4175 19.1262C15.4113 18.7375 15.4378 18.349 15.4967 17.9647C15.44 17.5881 15.4135 17.2075 15.4175 16.8267C15.4113 16.4543 15.4378 16.0821 15.4967 15.7144C17.0539 15.755 18.6112 15.8748 20.1685 16.0545C20.2248 16.4239 20.2512 16.7974 20.2476 17.1711C20.2509 17.5462 20.2244 17.921 20.1685 18.292C19.131 18.1765 18.0914 18.0781 17.0539 18.0289C17.1107 18.4141 17.1364 18.8032 17.131 19.1925C17.1347 19.5868 17.1089 19.9808 17.0539 20.3712C17.1107 20.7722 17.1365 21.1769 17.131 21.5819C17.1347 21.9918 17.1089 22.4014 17.0539 22.8076C18.0921 22.8547 19.1303 22.926 20.1685 23.0215C20.2242 23.4276 20.2506 23.8373 20.2476 24.2472Z" fill="#24272B"/>
<path d="M28.7377 31.0709C28.7942 31.4662 28.8199 31.8653 28.8147 32.2645C28.8185 32.6659 28.7927 33.067 28.7377 33.4646H27.1804C27.1234 33.0528 27.097 32.6374 27.1013 32.2218C27.0953 31.811 27.1217 31.4005 27.1804 30.9939C27.1236 30.5893 27.0971 30.181 27.1013 29.7725C27.095 29.371 27.1215 28.9697 27.1804 28.5725C26.1408 28.4798 25.1019 28.3935 24.0638 28.3136C24.1223 28.7331 24.1488 29.1565 24.1429 29.58C24.1477 30.0091 24.1212 30.4381 24.0638 30.8634C24.1224 31.2937 24.1489 31.7277 24.1429 32.1619C24.1472 32.6003 24.1207 33.0384 24.0638 33.4731H22.5065C22.4514 33.0268 22.4257 32.5773 22.4295 32.1276C22.4239 31.685 22.4496 31.2425 22.5065 30.8035C22.4515 30.3694 22.4258 29.932 22.4295 29.4944C22.4237 29.0653 22.4495 28.6363 22.5065 28.211L23.0905 28.2495C23.0355 27.8296 23.0098 27.4065 23.0135 26.9831C23.0077 26.5696 23.0334 26.1563 23.0905 25.7467C23.0357 25.3376 23.01 24.9252 23.0135 24.5125C23.0076 24.1118 23.0333 23.7112 23.0905 23.3146L23.4798 23.3616C23.425 22.9654 23.3993 22.5658 23.4028 22.1659C23.397 21.778 23.4227 21.3902 23.4798 21.0065L24.0638 21.092C24.009 20.7081 23.9832 20.3205 23.9868 19.9327C23.9808 19.5589 24.0066 19.1854 24.0638 18.816L24.4595 18.8781C24.4049 18.5056 24.3791 18.1294 24.3825 17.7529C24.3766 17.3906 24.4024 17.0284 24.4595 16.6705C25.241 16.8131 26.0203 16.9557 26.7975 17.0984C26.8537 17.4635 26.8795 17.8327 26.8745 18.2021C26.8787 18.5651 26.853 18.9279 26.7975 19.2866L27.1869 19.3615C27.2895 20.1017 27.2895 20.8524 27.1869 21.5926L27.7708 21.6974C27.8735 22.449 27.8735 23.2111 27.7708 23.9627L28.1601 24.0247C28.2164 24.4071 28.2422 24.7934 28.2371 25.1799C28.2412 25.5627 28.2154 25.9454 28.1601 26.3243C28.2165 26.7124 28.2422 27.1043 28.2371 27.4965C28.2411 27.8872 28.2154 28.2776 28.1601 28.6644L28.7377 28.7179C28.7942 29.1082 28.8199 29.5023 28.8147 29.8966C28.8185 30.2894 28.7928 30.682 28.7377 31.0709ZM26.5173 24.9381C26.5125 24.5565 26.5396 24.1751 26.5986 23.798L26.2093 23.7402C26.1527 23.3528 26.1262 22.9616 26.1301 22.5702C26.1238 22.1914 26.1502 21.8128 26.2093 21.4386L25.0413 21.2482C25.0977 21.6342 25.1235 22.024 25.1183 22.414C25.1224 22.8019 25.0967 23.1895 25.0413 23.5734L24.652 23.5199C24.7085 23.9174 24.7342 24.3186 24.729 24.7199C24.733 25.1199 24.7072 25.5196 24.652 25.9157C25.3009 25.9856 25.9497 26.0569 26.5986 26.1296C26.5407 25.738 26.5128 25.3425 26.5152 24.9467L26.5173 24.9381Z" fill="#24272B"/>
<path d="M36.601 22.3841C36.6054 22.7251 36.5797 23.0658 36.524 23.4023C36.5799 23.7466 36.6057 24.0952 36.601 24.444C36.6054 24.7822 36.5796 25.1201 36.524 25.4537C36.58 25.7952 36.6057 26.1409 36.601 26.4869C36.6053 26.8222 36.5795 27.1572 36.524 27.488C36.58 27.8244 36.6058 28.1652 36.601 28.5062C36.6052 28.8401 36.5794 29.1737 36.524 29.503C36.6267 30.1636 36.6267 30.8361 36.524 31.4966C36.5802 31.8244 36.606 32.1567 36.601 32.4892C36.605 32.8188 36.5792 33.1481 36.524 33.4732H34.9646C34.9094 33.1323 34.8836 32.7874 34.8876 32.4421C34.8821 32.0975 34.9079 31.7531 34.9646 31.4132L33.9913 31.3597C33.9358 31.006 33.9101 30.6482 33.9143 30.2902C33.9089 29.9385 33.9346 29.587 33.9913 29.2399L33.4073 29.1821C33.353 28.8283 33.3273 28.4706 33.3303 28.1126C33.324 27.7545 33.3498 27.3965 33.4073 27.043L32.6287 26.9339C32.5739 26.5722 32.5481 26.2067 32.5517 25.8409C32.5456 25.4828 32.5714 25.1249 32.6287 24.7713L31.8501 24.6366C31.9556 25.3607 31.9556 26.0964 31.8501 26.8206C31.9556 27.5498 31.9556 28.2904 31.8501 29.0196C31.9072 29.3868 31.9337 29.7581 31.9292 30.1298C31.9325 30.4992 31.9061 30.8683 31.8501 31.2335C31.9074 31.6022 31.9338 31.975 31.9292 32.348C31.9324 32.721 31.906 33.0937 31.8501 33.4625H30.2928C30.2377 33.0778 30.2119 32.6895 30.2158 32.3009C30.2102 31.9159 30.236 31.531 30.2928 31.1501C30.2377 30.7683 30.212 30.3829 30.2158 29.9971C30.2102 29.6177 30.236 29.2385 30.2928 28.8634C30.2379 28.4859 30.2122 28.1047 30.2158 27.7233C30.21 27.3489 30.2358 26.9746 30.2928 26.6045C30.2379 26.2299 30.2122 25.8516 30.2158 25.4729C30.2099 25.1042 30.2357 24.7356 30.2928 24.3713C30.2381 24.0002 30.2123 23.6255 30.2158 23.2504C30.2099 22.8867 30.2356 22.5231 30.2928 22.1638C30.2381 21.7963 30.2124 21.4251 30.2158 21.0536C30.2101 20.6955 30.2358 20.3376 30.2928 19.984C30.2381 19.6209 30.2123 19.2539 30.2158 18.8867C30.2099 18.5328 30.2356 18.1792 30.2928 17.83C30.9345 17.9711 31.5912 18.1166 32.2394 18.2578C32.2962 18.6164 32.3227 18.9792 32.3185 19.3423C32.3222 19.6947 32.2957 20.0468 32.2394 20.3947L32.8234 20.5188C32.8802 20.8774 32.9067 21.2402 32.9025 21.6033C32.9063 21.9565 32.8798 22.3093 32.8234 22.6579L33.4073 22.7734C33.4649 23.1269 33.4913 23.4848 33.4865 23.843C33.4912 24.1954 33.4648 24.5476 33.4073 24.8954L34.186 25.0302C34.2441 25.3836 34.2706 25.7415 34.2651 26.0997C34.2698 26.4486 34.2433 26.7972 34.186 27.1414L34.9646 27.2505C34.9097 26.9025 34.884 26.5504 34.8876 26.1981C34.8819 25.8528 34.9076 25.5077 34.9646 25.1671C34.9091 24.8133 34.8834 24.4555 34.8876 24.0975C34.8818 23.7515 34.9076 23.4057 34.9646 23.0643C34.9095 22.7105 34.8837 22.3528 34.8876 21.9948C34.8817 21.648 34.9075 21.3015 34.9646 20.9595C34.9099 20.6056 34.8842 20.2479 34.8876 19.8899C34.8817 19.5425 34.9075 19.1952 34.9646 18.8524L36.524 19.2011C36.5802 19.5548 36.6059 19.9126 36.601 20.2707C36.6055 20.6145 36.5797 20.9581 36.524 21.2974C36.5818 21.6567 36.6076 22.0203 36.601 22.3841Z" fill="#24272B"/>
<path d="M44.3895 29.3383C44.3943 29.6256 44.3677 29.9125 44.3103 30.194C44.3684 30.4754 44.3949 30.7623 44.3895 31.0496C44.3941 31.3262 44.3676 31.6025 44.3103 31.8732L43.5317 31.8411C43.5895 32.1131 43.616 32.3908 43.6108 32.6689C43.6153 32.9406 43.5888 33.2119 43.5317 33.4775H38.8599C38.8039 33.1727 38.7774 32.8632 38.7808 32.5534C38.7761 32.2414 38.8026 31.9296 38.8599 31.6229L38.0813 31.5844C38.0254 31.2659 37.9989 30.943 38.0021 30.6196C37.9962 30.2977 38.0228 29.9759 38.0813 29.6592L39.6385 29.8089C39.6946 30.118 39.7204 30.4318 39.7155 30.7459C39.7197 31.0535 39.6939 31.3609 39.6385 31.6635C40.6767 31.7149 41.7149 31.7634 42.7531 31.809C42.6984 31.5271 42.6726 31.2404 42.6761 30.9533C42.6708 30.6619 42.6966 30.3708 42.7531 30.0849C42.6979 29.7901 42.6721 29.4906 42.6761 29.1907C42.6706 28.8908 42.6964 28.5912 42.7531 28.2966C41.4539 28.154 40.1562 27.9936 38.8599 27.8153C38.8041 27.4896 38.7776 27.1596 38.7808 26.8292C38.7756 26.5029 38.8021 26.177 38.8599 25.8559L38.0813 25.7275C38.0256 25.3911 37.9991 25.0504 38.0021 24.7093C37.996 24.3753 38.0225 24.0414 38.0813 23.7125C38.0256 23.3703 37.9992 23.0239 38.0021 22.6772C37.996 22.3382 38.0225 21.9993 38.0813 21.6654C38.3401 21.721 38.6011 21.7724 38.8599 21.8258C38.8044 21.48 38.7779 21.1301 38.7808 20.7798C38.7756 20.4373 38.8021 20.095 38.8599 19.7573C40.4172 20.0867 41.9744 20.3991 43.5317 20.6622C43.5895 21.0041 43.616 21.3507 43.6108 21.6975C43.6159 22.0301 43.5894 22.3624 43.5317 22.69L44.3103 22.8141C44.3681 23.1431 44.3946 23.4769 44.3895 23.8109C44.3944 24.1315 44.3679 24.4517 44.3103 24.7671C43.7927 24.6922 43.2729 24.6152 42.7531 24.5318C42.6981 24.2046 42.6723 23.8731 42.6761 23.5414C42.6705 23.2124 42.6963 22.8836 42.7531 22.5595C41.7156 22.382 40.676 22.1873 39.6385 21.982C39.6944 22.322 39.7201 22.6663 39.7155 23.0109C39.72 23.3427 39.6943 23.6742 39.6385 24.0013C39.6944 24.3341 39.7202 24.6713 39.7155 25.0088C39.72 25.3342 39.6942 25.6593 39.6385 25.98C40.937 26.1939 42.2354 26.38 43.5317 26.549C43.5895 26.8571 43.616 27.1703 43.6108 27.4837C43.6158 27.7844 43.5892 28.0848 43.5317 28.38L44.3103 28.4613C44.3673 28.7501 44.3938 29.044 44.3895 29.3383Z" fill="#24272B"/>
<path d="M52.0988 23.5628C52.1557 23.879 52.1822 24.1999 52.1779 24.5211C52.1817 24.8331 52.1552 25.1447 52.0988 25.4516C51.8399 25.4516 51.579 25.4366 51.3201 25.4259C51.3761 25.7271 51.4019 26.0331 51.3971 26.3393C51.4015 26.6364 51.3757 26.9331 51.3201 27.2249L50.5415 27.1928C50.5974 27.4788 50.6232 27.7699 50.6185 28.0613C50.6229 28.3435 50.5971 28.6253 50.5415 28.902L49.7629 28.8677C49.8187 29.14 49.8445 29.4176 49.8399 29.6956C49.8443 29.9636 49.8185 30.2312 49.7629 30.4935C49.8186 30.7499 49.8444 31.0119 49.8399 31.2742C49.8442 31.5281 49.8183 31.7816 49.7629 32.0293C49.8187 32.2698 49.8445 32.5162 49.8399 32.763C49.844 33.002 49.8181 33.2406 49.7629 33.4732H48.2035C48.1462 33.2344 48.1196 32.9893 48.1243 32.7438C48.1191 32.4919 48.1457 32.2403 48.2035 31.9951C48.098 31.4792 48.098 30.9473 48.2035 30.4314C48.0979 29.886 48.0979 29.3254 48.2035 28.78L47.4248 28.7244C47.369 28.4406 47.3432 28.1516 47.3478 27.8624C47.3422 27.5673 47.3688 27.2725 47.427 26.9832L46.6483 26.9105C46.5913 26.6066 46.5648 26.2977 46.5692 25.9885C46.5634 25.6786 46.5899 25.3689 46.6483 25.0644L45.8676 24.9724C45.8126 24.6532 45.7868 24.3295 45.7906 24.0056C45.7851 23.6816 45.8109 23.3578 45.8676 23.0387C45.8125 22.7058 45.7868 22.3686 45.7906 22.0312C45.7851 21.6951 45.8109 21.3593 45.8676 21.028C46.3874 21.1007 46.9072 21.1691 47.427 21.229C47.4829 21.5662 47.5087 21.9076 47.504 22.2494C47.5085 22.5783 47.4827 22.907 47.427 23.2312C47.4828 23.554 47.5086 23.8813 47.504 24.2088C47.5084 24.5243 47.4826 24.8394 47.427 25.15L48.2056 25.2249C48.2615 25.5318 48.2873 25.8434 48.2826 26.1554C48.287 26.4552 48.2612 26.7548 48.2056 27.0495C48.7233 27.0923 49.2424 27.1287 49.7629 27.1586C49.6574 26.5607 49.6574 25.949 49.7629 25.3511L50.5415 25.3981C50.4388 24.7698 50.4388 24.129 50.5415 23.5007C50.4388 22.8423 50.4388 22.172 50.5415 21.5135C51.0613 21.5456 51.579 21.5691 52.0988 21.5841C52.1557 21.9169 52.1822 22.2541 52.1779 22.5916C52.181 22.9171 52.1545 23.2421 52.0988 23.5628Z" fill="#24272B"/>
<path d="M59.8872 31.9266C59.9433 32.1815 59.9691 32.4421 59.9642 32.7031C59.9684 32.959 59.9426 33.2146 59.8872 33.4646H58.3299C58.2727 33.2258 58.2461 32.9807 58.2508 32.7352C58.2456 32.4826 58.2722 32.2303 58.3299 31.9843C58.2726 31.7318 58.246 31.4732 58.2508 31.2143C58.2458 30.9461 58.2724 30.6783 58.3299 30.4164C57.2903 30.4763 56.2515 30.5155 55.2133 30.534C55.2712 30.7858 55.2978 31.0437 55.2924 31.302C55.297 31.5524 55.2705 31.8025 55.2133 32.0464C55.271 32.2822 55.2976 32.5245 55.2924 32.7672C55.2971 33.0022 55.2704 33.2367 55.2133 33.4646H53.656C53.6007 33.2378 53.5748 33.0049 53.579 32.7715C53.5745 32.5304 53.6003 32.2896 53.656 32.0549C53.6006 31.8122 53.5747 31.5637 53.579 31.3148C53.5744 31.0581 53.6002 30.8018 53.656 30.5511H54.24C54.1846 30.2918 54.1587 30.027 54.163 29.7618C54.1582 29.4888 54.184 29.2162 54.24 28.949C54.1846 28.6737 54.1588 28.3933 54.163 28.1126C54.1586 27.8254 54.1844 27.5387 54.24 27.2569H54.6293C54.5738 26.9658 54.548 26.6698 54.5523 26.3735C54.5474 26.0679 54.5732 25.7626 54.6293 25.4622L55.2133 25.443C55.1577 25.136 55.1319 24.8244 55.1363 24.5125C55.1315 24.1906 55.1572 23.869 55.2133 23.552L55.6047 23.5328C55.5472 23.2102 55.5207 22.8828 55.5256 22.5552C55.5204 22.2169 55.5469 21.8789 55.6047 21.5456C56.3834 21.5049 57.162 21.4407 57.9406 21.3488C57.9971 21.6794 58.0229 22.0145 58.0176 22.3498C58.0216 22.6837 57.9958 23.0173 57.9406 23.3467L58.3299 23.2996C58.3865 23.6158 58.4123 23.9367 58.407 24.2579C58.411 24.5776 58.3852 24.897 58.3299 25.212L58.9139 25.1435C58.9705 25.446 58.9963 25.7535 58.9909 26.0612C58.9948 26.3688 58.969 26.6761 58.9139 26.9789L59.3032 26.9318C59.3596 27.2221 59.3854 27.5174 59.3802 27.8131C59.3842 28.108 59.3584 28.4025 59.3032 28.6923C59.3596 28.9696 59.3854 29.2522 59.3802 29.5351C59.3842 29.8151 59.3584 30.0947 59.3032 30.3693L59.8872 30.3265C59.9897 30.86 59.9897 31.4081 59.8872 31.9416V31.9266ZM57.6668 27.9586C57.6618 27.6628 57.6884 27.3674 57.746 27.0773L57.3567 27.1093C57.2992 26.8163 57.2727 26.5181 57.2775 26.2195C57.2723 25.9096 57.2988 25.5999 57.3567 25.2954C56.9673 25.3296 56.578 25.3574 56.1887 25.3809C56.2914 25.9776 56.2914 26.5875 56.1887 27.1842L55.7994 27.2035C55.9029 27.7692 55.9029 28.349 55.7994 28.9147C56.4411 28.8912 57.0957 28.8591 57.746 28.8142C57.6887 28.5356 57.6621 28.2515 57.6668 27.9671V27.9586Z" fill="#24272B"/>
<path d="M67.7527 21.8193C67.7557 22.1844 67.7299 22.5492 67.6756 22.9103C67.7332 23.2501 67.759 23.5945 67.7527 23.9392C67.7557 24.3028 67.73 24.6662 67.6756 25.0258C67.7331 25.3664 67.7589 25.7115 67.7527 26.0569C67.7559 26.4191 67.7302 26.7811 67.6756 27.1392C67.733 27.482 67.7588 27.8293 67.7527 28.1767C67.756 28.5347 67.7302 28.8924 67.6756 29.2463C67.7327 29.5912 67.7585 29.9406 67.7527 30.2901C67.7565 30.6482 67.7307 31.0059 67.6756 31.3597C67.7326 31.7075 67.7583 32.0597 67.7527 32.4121C67.7566 32.7666 67.7308 33.1208 67.6756 33.471H66.1162C66.0611 33.1503 66.0353 32.8252 66.0392 32.4998C66.0343 32.1709 66.0601 31.8422 66.1162 31.518C66.0608 31.1959 66.035 30.8694 66.0392 30.5425C66.0345 30.2072 66.0603 29.8721 66.1162 29.5415C66.0606 29.2179 66.0348 28.89 66.0392 28.5617C66.0347 28.2207 66.0605 27.88 66.1162 27.5435C65.0781 27.7959 64.0399 28.0099 63.0017 28.1853C63.0594 28.4833 63.0859 28.7866 63.0809 29.0901C63.0839 29.3964 63.0574 29.7023 63.0017 30.0035C63.0592 30.2929 63.0858 30.5876 63.0809 30.8827C63.0842 31.1783 63.0576 31.4736 63.0017 31.764C63.0591 32.0455 63.0856 32.3324 63.0809 32.6196C63.0849 32.9068 63.0584 33.1936 63.0017 33.4752H61.4445C61.3893 33.2137 61.3634 32.9468 61.3675 32.6795C61.3628 32.4051 61.3886 32.1311 61.4445 31.8624C61.389 31.5915 61.3632 31.3153 61.3675 31.0388C61.3628 30.7517 61.3886 30.4649 61.4445 30.1832C61.3889 29.9014 61.3631 29.6147 61.3675 29.3275C61.3629 29.0284 61.3887 28.7295 61.4445 28.4355C61.3888 28.1423 61.363 27.8441 61.3675 27.5457C61.3631 27.2345 61.3888 26.9235 61.4445 26.6173C61.3886 26.314 61.3628 26.0059 61.3675 25.6975C61.363 25.3735 61.3888 25.0498 61.4445 24.7306C61.3886 24.4165 61.3628 24.0978 61.3675 23.7787C61.3629 23.4434 61.3887 23.1083 61.4445 22.7776C61.3886 22.452 61.3629 22.1219 61.3675 21.7915C61.363 21.4441 61.3887 21.097 61.4445 20.754C61.9643 20.6385 62.4819 20.508 63.0017 20.3647C63.0596 20.6973 63.0861 21.0347 63.0809 21.3722C63.0838 21.7183 63.0573 22.0639 63.0017 22.4054C63.0596 22.7287 63.0862 23.0568 63.0809 23.3851C63.0838 23.7219 63.0573 24.0583 63.0017 24.3905C63.0596 24.7051 63.0861 25.0247 63.0809 25.3445C63.0838 25.6714 63.0573 25.9979 63.0017 26.32C64.0413 26.1004 65.0795 25.8365 66.1162 25.5285C66.0604 25.2 66.0346 24.867 66.0392 24.5338C66.0348 24.1829 66.0606 23.8322 66.1162 23.4857C66.0602 23.1543 66.0344 22.8185 66.0392 22.4824C66.0346 22.1244 66.0604 21.7666 66.1162 21.4129C66.06 21.0787 66.0342 20.74 66.0392 20.4011C66.0354 20.0431 66.0611 19.6853 66.1162 19.3315C66.6353 19.1305 67.1551 18.9166 67.6756 18.6898C67.7334 19.0282 67.7592 19.3712 67.7527 19.7144C67.7532 20.079 67.7253 20.443 67.6692 20.8032C67.7286 21.1386 67.7565 21.4788 67.7527 21.8193Z" fill="#24272B"/>
</svg>
